<svg xmlns="http://www.w3.org/2000/svg" width="900" height="1380" viewBox="0 0 900 1380">
  <rect width="900" height="1380" fill="#0a0f0a"/>

  <defs>
    <linearGradient id="fade" x1="0" y1="0" x2="0" y2="1">
      <stop offset="0"    stop-color="#0a0f0a" stop-opacity="0.10"/>
      <stop offset="0.15" stop-color="#0a0f0a" stop-opacity="0.80"/>
      <stop offset="0.24" stop-color="#0a0f0a" stop-opacity="0.92"/>
      <stop offset="0.86" stop-color="#0a0f0a" stop-opacity="0.92"/>
      <stop offset="1"    stop-color="#0a0f0a" stop-opacity="0.80"/>
    </linearGradient>

    <linearGradient id="waveG1" x1="0%" y1="0%" x2="100%" y2="0%">
      <stop offset="0%"   stop-color="#1a4d2e"/>
      <stop offset="50%"  stop-color="#2ea043"/>
      <stop offset="100%" stop-color="#56d364"/>
    </linearGradient>
    <linearGradient id="waveG2" x1="0%" y1="0%" x2="100%" y2="0%">
      <stop offset="0%"   stop-color="#0d3320"/>
      <stop offset="50%"  stop-color="#1a4d2e"/>
      <stop offset="100%" stop-color="#238636"/>
    </linearGradient>
    <linearGradient id="waveG3" x1="0%" y1="0%" x2="100%" y2="0%">
      <stop offset="0%"   stop-color="#56d364"/>
      <stop offset="50%"  stop-color="#8dffc2"/>
      <stop offset="100%" stop-color="#56d364"/>
    </linearGradient>

    <clipPath id="tc1"><rect x="60" y="525" width="0" height="30">
      <animate attributeName="width" values="0;420;420;0;0;0;0;0" keyTimes="0;0.038;0.20;0.225;0.25;0.5;0.75;1" dur="16s" repeatCount="indefinite"/>
    </rect></clipPath>
    <clipPath id="tc2"><rect x="60" y="525" width="0" height="30">
      <animate attributeName="width" values="0;0;420;420;0;0;0;0" keyTimes="0;0.25;0.288;0.45;0.475;0.5;0.75;1" dur="16s" repeatCount="indefinite"/>
    </rect></clipPath>
    <clipPath id="tc3"><rect x="60" y="525" width="0" height="30">
      <animate attributeName="width" values="0;0;0;420;420;0;0;0" keyTimes="0;0.25;0.5;0.538;0.70;0.725;0.75;1" dur="16s" repeatCount="indefinite"/>
    </rect></clipPath>
    <clipPath id="tc4"><rect x="60" y="525" width="0" height="30">
      <animate attributeName="width" values="0;0;0;0;420;420;0;0" keyTimes="0;0.25;0.5;0.75;0.788;0.95;0.975;1" dur="16s" repeatCount="indefinite"/>
    </rect></clipPath>
  </defs>

  <rect width="900" height="1380" fill="url(#fade)"/>

  <!-- ═══ امواج ═══ -->
  <g>
    <path d="M0,180 Q112.5,140 225,180 T450,180 T675,180 T900,180 T1125,180 T1350,180 T1575,180 T1800,180 L1800,0 L0,0 Z" fill="url(#waveG2)" opacity="0.7">
      <animateTransform attributeName="transform" type="translate" from="0,0" to="-900,0" dur="18s" repeatCount="indefinite"/>
    </path>
    <path d="M0,150 Q112.5,110 225,150 T450,150 T675,150 T900,150 T1125,150 T1350,150 T1575,150 T1800,150 L1800,0 L0,0 Z" fill="url(#waveG1)">
      <animateTransform attributeName="transform" type="translate" from="0,0" to="-900,0" dur="12s" repeatCount="indefinite"/>
    </path>
    <path d="M0,130 Q112.5,90 225,130 T450,130 T675,130 T900,130 T1125,130 T1350,130 T1575,130 T1800,130 L1800,0 L0,0 Z" fill="url(#waveG3)" opacity="0.45">
      <animateTransform attributeName="transform" type="translate" from="0,0" to="-900,0" dur="8s" repeatCount="indefinite"/>
    </path>
    <text x="450" y="80" text-anchor="middle" font-family="'Segoe UI',Roboto,Arial,sans-serif" font-size="52" font-weight="800" fill="#ffffff" letter-spacing="1">I'm Hiva</text>
    <text x="450" y="112" text-anchor="middle" font-family="'Segoe UI',Roboto,Arial,sans-serif" font-size="13" font-weight="600" fill="#d1f7e0" letter-spacing="4">DEVELOPER · CODER · DREAMER</text>
  </g>

  <!-- ═══ کارت اصلی ═══ -->
  <rect x="30" y="180" width="840" height="1160" rx="20" fill="#0d1117" fill-opacity="0.6" stroke="#238636" stroke-width="1.5"/>

  <!-- ═══════════ ستون چپ ═══════════ -->
  <text x="60" y="245" font-family="'Segoe UI',Roboto,Arial,sans-serif" font-size="42" font-weight="800" fill="#ffffff">Hiva </text>
  <text x="178" y="245" font-family="'Segoe UI',Roboto,Arial,sans-serif" font-size="42" font-weight="800" fill="#8dffc2">Fourotan</text>
  <line x1="60" y1="263" x2="555" y2="263" stroke="#238636" stroke-width="1.5"/>

  <text x="60" y="300" font-family="'Segoe UI',Roboto,Arial,sans-serif" font-size="20" font-weight="700" fill="#7ee787">Software Developer</text>
  <text x="60" y="326" font-family="'Segoe UI',Roboto,Arial,sans-serif" font-size="14" font-weight="500" fill="#56d364">Full-Stack · AI · Automation</text>

  <!-- ═══ Hiva-OS ═══ -->
  <svg x="40" y="345" width="500" height="136" viewBox="140 0 540 148" xmlns="http://www.w3.org/2000/svg">
    <style>
      @keyframes px-pulse { 0%,100% { opacity: 0.35 } 50% { opacity: 1 } }
      .px { animation: px-pulse 2.4s ease-in-out infinite }
    </style>
    <g fill="#40c463">
      <rect x="150" y="35" width="12" height="12" rx="2" class="px" style="animation-delay:0.02s"/>
      <rect x="150" y="49" width="12" height="12" rx="2" class="px" style="animation-delay:0.04s"/>
      <rect x="150" y="63" width="12" height="12" rx="2" class="px" style="animation-delay:0.06s"/>
      <rect x="150" y="77" width="12" height="12" rx="2" class="px" style="animation-delay:0.08s"/>
      <rect x="150" y="91" width="12" height="12" rx="2" class="px" style="animation-delay:0.10s"/>
      <rect x="150" y="105" width="12" height="12" rx="2" class="px" style="animation-delay:0.12s"/>
      <rect x="150" y="119" width="12" height="12" rx="2" class="px" style="animation-delay:0.14s"/>
      <rect x="206" y="35" width="12" height="12" rx="2" class="px" style="animation-delay:0.16s"/>
      <rect x="206" y="49" width="12" height="12" rx="2" class="px" style="animation-delay:0.18s"/>
      <rect x="206" y="63" width="12" height="12" rx="2" class="px" style="animation-delay:0.20s"/>
      <rect x="206" y="77" width="12" height="12" rx="2" class="px" style="animation-delay:0.22s"/>
      <rect x="206" y="91" width="12" height="12" rx="2" class="px" style="animation-delay:0.24s"/>
      <rect x="206" y="105" width="12" height="12" rx="2" class="px" style="animation-delay:0.26s"/>
      <rect x="206" y="119" width="12" height="12" rx="2" class="px" style="animation-delay:0.28s"/>
      <rect x="164" y="77" width="12" height="12" rx="2" class="px" style="animation-delay:0.30s"/>
      <rect x="178" y="77" width="12" height="12" rx="2" class="px" style="animation-delay:0.32s"/>
      <rect x="192" y="77" width="12" height="12" rx="2" class="px" style="animation-delay:0.34s"/>
      <rect x="234" y="35" width="12" height="12" rx="2" class="px" style="animation-delay:0.36s"/>
      <rect x="234" y="119" width="12" height="12" rx="2" class="px" style="animation-delay:0.38s"/>
      <rect x="248" y="35" width="12" height="12" rx="2" class="px" style="animation-delay:0.40s"/>
      <rect x="248" y="49" width="12" height="12" rx="2" class="px" style="animation-delay:0.42s"/>
      <rect x="248" y="63" width="12" height="12" rx="2" class="px" style="animation-delay:0.44s"/>
      <rect x="248" y="77" width="12" height="12" rx="2" class="px" style="animation-delay:0.46s"/>
      <rect x="248" y="91" width="12" height="12" rx="2" class="px" style="animation-delay:0.48s"/>
      <rect x="248" y="105" width="12" height="12" rx="2" class="px" style="animation-delay:0.50s"/>
      <rect x="248" y="119" width="12" height="12" rx="2" class="px" style="animation-delay:0.52s"/>
      <rect x="262" y="35" width="12" height="12" rx="2" class="px" style="animation-delay:0.54s"/>
      <rect x="262" y="119" width="12" height="12" rx="2" class="px" style="animation-delay:0.56s"/>
      <rect x="290" y="35" width="12" height="12" rx="2" class="px" style="animation-delay:0.58s"/>
      <rect x="290" y="49" width="12" height="12" rx="2" class="px" style="animation-delay:0.60s"/>
      <rect x="290" y="63" width="12" height="12" rx="2" class="px" style="animation-delay:0.62s"/>
      <rect x="290" y="77" width="12" height="12" rx="2" class="px" style="animation-delay:0.64s"/>
      <rect x="290" y="91" width="12" height="12" rx="2" class="px" style="animation-delay:0.66s"/>
      <rect x="304" y="91" width="12" height="12" rx="2" class="px" style="animation-delay:0.68s"/>
      <rect x="304" y="105" width="12" height="12" rx="2" class="px" style="animation-delay:0.70s"/>
      <rect x="304" y="119" width="12" height="12" rx="2" class="px" style="animation-delay:0.72s"/>
      <rect x="318" y="105" width="12" height="12" rx="2" class="px" style="animation-delay:0.74s"/>
      <rect x="318" y="119" width="12" height="12" rx="2" class="px" style="animation-delay:0.76s"/>
      <rect x="332" y="91" width="12" height="12" rx="2" class="px" style="animation-delay:0.78s"/>
      <rect x="332" y="105" width="12" height="12" rx="2" class="px" style="animation-delay:0.80s"/>
      <rect x="332" y="119" width="12" height="12" rx="2" class="px" style="animation-delay:0.82s"/>
      <rect x="346" y="35" width="12" height="12" rx="2" class="px" style="animation-delay:0.84s"/>
      <rect x="346" y="49" width="12" height="12" rx="2" class="px" style="animation-delay:0.86s"/>
      <rect x="346" y="63" width="12" height="12" rx="2" class="px" style="animation-delay:0.88s"/>
      <rect x="346" y="77" width="12" height="12" rx="2" class="px" style="animation-delay:0.90s"/>
      <rect x="346" y="91" width="12" height="12" rx="2" class="px" style="animation-delay:0.92s"/>
      <rect x="374" y="49" width="12" height="12" rx="2" class="px" style="animation-delay:0.94s"/>
      <rect x="374" y="63" width="12" height="12" rx="2" class="px" style="animation-delay:0.96s"/>
      <rect x="374" y="77" width="12" height="12" rx="2" class="px" style="animation-delay:0.98s"/>
      <rect x="374" y="91" width="12" height="12" rx="2" class="px" style="animation-delay:1.00s"/>
      <rect x="374" y="105" width="12" height="12" rx="2" class="px" style="animation-delay:1.02s"/>
      <rect x="374" y="119" width="12" height="12" rx="2" class="px" style="animation-delay:1.04s"/>
      <rect x="388" y="35" width="12" height="12" rx="2" class="px" style="animation-delay:1.06s"/>
      <rect x="388" y="77" width="12" height="12" rx="2" class="px" style="animation-delay:1.08s"/>
      <rect x="402" y="35" width="12" height="12" rx="2" class="px" style="animation-delay:1.10s"/>
      <rect x="402" y="77" width="12" height="12" rx="2" class="px" style="animation-delay:1.12s"/>
      <rect x="416" y="35" width="12" height="12" rx="2" class="px" style="animation-delay:1.14s"/>
      <rect x="416" y="77" width="12" height="12" rx="2" class="px" style="animation-delay:1.16s"/>
      <rect x="430" y="49" width="12" height="12" rx="2" class="px" style="animation-delay:1.18s"/>
      <rect x="430" y="63" width="12" height="12" rx="2" class="px" style="animation-delay:1.20s"/>
      <rect x="430" y="77" width="12" height="12" rx="2" class="px" style="animation-delay:1.22s"/>
      <rect x="430" y="91" width="12" height="12" rx="2" class="px" style="animation-delay:1.24s"/>
      <rect x="430" y="105" width="12" height="12" rx="2" class="px" style="animation-delay:1.26s"/>
      <rect x="430" y="119" width="12" height="12" rx="2" class="px" style="animation-delay:1.28s"/>
      <rect x="458" y="77" width="12" height="12" rx="2" class="px" style="animation-delay:1.30s"/>
      <rect x="472" y="77" width="12" height="12" rx="2" class="px" style="animation-delay:1.32s"/>
      <rect x="486" y="77" width="12" height="12" rx="2" class="px" style="animation-delay:1.34s"/>
      <rect x="514" y="49" width="12" height="12" rx="2" class="px" style="animation-delay:1.36s"/>
      <rect x="514" y="63" width="12" height="12" rx="2" class="px" style="animation-delay:1.38s"/>
      <rect x="514" y="77" width="12" height="12" rx="2" class="px" style="animation-delay:1.40s"/>
      <rect x="514" y="91" width="12" height="12" rx="2" class="px" style="animation-delay:1.42s"/>
      <rect x="514" y="105" width="12" height="12" rx="2" class="px" style="animation-delay:1.44s"/>
      <rect x="570" y="49" width="12" height="12" rx="2" class="px" style="animation-delay:1.46s"/>
      <rect x="570" y="63" width="12" height="12" rx="2" class="px" style="animation-delay:1.48s"/>
      <rect x="570" y="77" width="12" height="12" rx="2" class="px" style="animation-delay:1.50s"/>
      <rect x="570" y="91" width="12" height="12" rx="2" class="px" style="animation-delay:1.52s"/>
      <rect x="570" y="105" width="12" height="12" rx="2" class="px" style="animation-delay:1.54s"/>
      <rect x="528" y="35" width="12" height="12" rx="2" class="px" style="animation-delay:1.56s"/>
      <rect x="528" y="119" width="12" height="12" rx="2" class="px" style="animation-delay:1.58s"/>
      <rect x="542" y="35" width="12" height="12" rx="2" class="px" style="animation-delay:1.60s"/>
      <rect x="542" y="119" width="12" height="12" rx="2" class="px" style="animation-delay:1.62s"/>
      <rect x="556" y="35" width="12" height="12" rx="2" class="px" style="animation-delay:1.64s"/>
      <rect x="556" y="119" width="12" height="12" rx="2" class="px" style="animation-delay:1.66s"/>
      <rect x="598" y="35" width="12" height="12" rx="2" class="px" style="animation-delay:1.68s"/>
      <rect x="598" y="49" width="12" height="12" rx="2" class="px" style="animation-delay:1.70s"/>
      <rect x="598" y="63" width="12" height="12" rx="2" class="px" style="animation-delay:1.72s"/>
      <rect x="598" y="119" width="12" height="12" rx="2" class="px" style="animation-delay:1.74s"/>
      <rect x="612" y="35" width="12" height="12" rx="2" class="px" style="animation-delay:1.76s"/>
      <rect x="612" y="77" width="12" height="12" rx="2" class="px" style="animation-delay:1.78s"/>
      <rect x="612" y="119" width="12" height="12" rx="2" class="px" style="animation-delay:1.80s"/>
      <rect x="626" y="35" width="12" height="12" rx="2" class="px" style="animation-delay:1.82s"/>
      <rect x="626" y="77" width="12" height="12" rx="2" class="px" style="animation-delay:1.84s"/>
      <rect x="626" y="119" width="12" height="12" rx="2" class="px" style="animation-delay:1.86s"/>
      <rect x="640" y="35" width="12" height="12" rx="2" class="px" style="animation-delay:1.88s"/>
      <rect x="640" y="77" width="12" height="12" rx="2" class="px" style="animation-delay:1.90s"/>
      <rect x="640" y="119" width="12" height="12" rx="2" class="px" style="animation-delay:1.92s"/>
      <rect x="654" y="35" width="12" height="12" rx="2" class="px" style="animation-delay:1.94s"/>
      <rect x="654" y="91" width="12" height="12" rx="2" class="px" style="animation-delay:1.96s"/>
      <rect x="654" y="105" width="12" height="12" rx="2" class="px" style="animation-delay:1.98s"/>
      <rect x="654" y="119" width="12" height="12" rx="2" class="px" style="animation-delay:2.00s"/>
    </g>
  </svg>

  <!-- ═══ تایپینگ ═══ -->
  <text x="60" y="545" font-family="ui-monospace,SFMono-Regular,Menlo,Consolas,monospace" font-size="18" font-weight="700" fill="#8dffc2" clip-path="url(#tc1)">Hi 👋 I'm Hiva</text>
  <text x="60" y="545" font-family="ui-monospace,SFMono-Regular,Menlo,Consolas,monospace" font-size="18" font-weight="700" fill="#8dffc2" clip-path="url(#tc2)">Full-Stack Developer</text>
  <text x="60" y="545" font-family="ui-monospace,SFMono-Regular,Menlo,Consolas,monospace" font-size="18" font-weight="700" fill="#8dffc2" clip-path="url(#tc3)">Open Source Enthusiast</text>
  <text x="60" y="545" font-family="ui-monospace,SFMono-Regular,Menlo,Consolas,monospace" font-size="18" font-weight="700" fill="#8dffc2" clip-path="url(#tc4)">Building cool stuff 🚀</text>
  <rect x="432" y="528" width="2" height="20" fill="#8dffc2">
    <animate attributeName="opacity" values="1;0;1" dur="1s" repeatCount="indefinite"/>
  </rect>

  <text x="60" y="610" font-family="'Segoe UI',Roboto,Arial,sans-serif" font-size="13" fill="#c9d1d9">I build web applications, explore AI-powered tools,</text>
  <text x="60" y="630" font-family="'Segoe UI',Roboto,Arial,sans-serif" font-size="13" fill="#c9d1d9">and craft clean, efficient code. Currently a high</text>
  <text x="60" y="650" font-family="'Segoe UI',Roboto,Arial,sans-serif" font-size="13" fill="#c9d1d9">school student passionate about open source.</text>

  <text x="60" y="690" font-family="'Segoe UI',Roboto,Arial,sans-serif" font-size="12" font-style="italic" fill="#8dffc2">"Code is my instrument, GitHub is my stage."</text>

  <!-- ═══════════ ستون راست ═══════════ -->
  <line x1="600" y1="210" x2="600" y2="710" stroke="#238636" stroke-width="1"/>
  <text x="630" y="238" font-family="'Segoe UI',Roboto,Arial,sans-serif" font-size="12" font-weight="700" fill="#8dffc2" letter-spacing="1.5">AVAILABLE WORLDWIDE</text>
  <line x1="630" y1="252" x2="845" y2="252" stroke="#238636" stroke-width="1"/>

  <text x="630" y="296" font-family="'Segoe UI',Roboto,Arial,sans-serif" font-size="12" font-weight="700" fill="#56d364">LOCATION</text>
  <text x="630" y="316" font-family="'Segoe UI',Roboto,Arial,sans-serif" font-size="13" fill="#c9d1d9">Iran</text>

  <text x="630" y="362" font-family="'Segoe UI',Roboto,Arial,sans-serif" font-size="12" font-weight="700" fill="#56d364">TIMEZONE</text>
  <text x="630" y="382" font-family="'Segoe UI',Roboto,Arial,sans-serif" font-size="13" fill="#c9d1d9">Asia/Tehran</text>

  <text x="630" y="428" font-family="'Segoe UI',Roboto,Arial,sans-serif" font-size="12" font-weight="700" fill="#56d364">FOCUS</text>
  <text x="630" y="448" font-family="'Segoe UI',Roboto,Arial,sans-serif" font-size="13" fill="#c9d1d9">Web · AI</text>
  <text x="630" y="468" font-family="'Segoe UI',Roboto,Arial,sans-serif" font-size="13" fill="#c9d1d9">Open Source</text>

  <text x="630" y="514" font-family="'Segoe UI',Roboto,Arial,sans-serif" font-size="12" font-weight="700" fill="#56d364">STATUS</text>
  <text x="630" y="534" font-family="'Segoe UI',Roboto,Arial,sans-serif" font-size="13" fill="#c9d1d9">Available for collab</text>

  <text x="630" y="580" font-family="'Segoe UI',Roboto,Arial,sans-serif" font-size="12" font-weight="700" fill="#56d364">LEARNING</text>
  <text x="630" y="600" font-family="'Segoe UI',Roboto,Arial,sans-serif" font-size="13" fill="#c9d1d9">TypeScript · AI</text>

  <!-- ═══════════════════════════════════════════════════════ -->
  <!--              💼 FEATURED PROJECTS                       -->
  <!-- ═══════════════════════════════════════════════════════ -->
  <line x1="60" y1="740" x2="845" y2="740" stroke="#238636" stroke-width="1"/>
  <text x="450" y="782" text-anchor="middle" font-family="'Segoe UI',Roboto,Arial,sans-serif" font-size="20" font-weight="700" fill="#8dffc2">💼 Featured Projects</text>

  <!-- پروژه ۱ -->
  <rect x="100" y="810" width="220" height="46" rx="6" fill="#161b22" stroke="#238636" stroke-width="1"/>
  <text x="210" y="839" text-anchor="middle" font-family="'Segoe UI',Roboto,Arial,sans-serif" font-size="14" font-weight="600" fill="#8dffc2">🐧 Ubuntu 26.04</text>

  <!-- پروژه ۲ -->
  <rect x="340" y="810" width="220" height="46" rx="6" fill="#161b22" stroke="#238636" stroke-width="1"/>
  <text x="450" y="839" text-anchor="middle" font-family="'Segoe UI',Roboto,Arial,sans-serif" font-size="14" font-weight="600" fill="#8dffc2">🍎 Mac OS 26</text>

  <!-- پروژه ۳ -->
  <rect x="580" y="810" width="220" height="46" rx="6" fill="#161b22" stroke="#238636" stroke-width="1"/>
  <text x="690" y="839" text-anchor="middle" font-family="'Segoe UI',Roboto,Arial,sans-serif" font-size="14" font-weight="600" fill="#8dffc2">🎮 Pixel Games</text>

  <!-- ═══════════════════════════════════════════════════════ -->
  <!--              🏆 ABOUT ME IN BADGES                      -->
  <!-- ═══════════════════════════════════════════════════════ -->
  <line x1="60" y1="900" x2="845" y2="900" stroke="#238636" stroke-width="1"/>
  <text x="450" y="942" text-anchor="middle" font-family="'Segoe UI',Roboto,Arial,sans-serif" font-size="20" font-weight="700" fill="#8dffc2">🏆 About Me in Badges</text>

  <!-- بج‌ها — ۵ تا در یک ردیف -->
  <rect x="59" y="970" width="150" height="38" rx="6" fill="#161b22" stroke="#238636" stroke-width="1"/>
  <text x="134" y="994" text-anchor="middle" font-family="'Segoe UI',Roboto,Arial,sans-serif" font-size="13" font-weight="600" fill="#8dffc2">🎻 Violinist</text>

  <rect x="217" y="970" width="150" height="38" rx="6" fill="#161b22" stroke="#238636" stroke-width="1"/>
  <text x="292" y="994" text-anchor="middle" font-family="'Segoe UI',Roboto,Arial,sans-serif" font-size="13" font-weight="600" fill="#7ee787">🎓 Science Lover</text>

  <rect x="375" y="970" width="150" height="38" rx="6" fill="#161b22" stroke="#238636" stroke-width="1"/>
  <text x="450" y="994" text-anchor="middle" font-family="'Segoe UI',Roboto,Arial,sans-serif" font-size="13" font-weight="600" fill="#56d364">🚀 Young Dev</text>

  <rect x="533" y="970" width="150" height="38" rx="6" fill="#161b22" stroke="#238636" stroke-width="1"/>
  <text x="608" y="994" text-anchor="middle" font-family="'Segoe UI',Roboto,Arial,sans-serif" font-size="13" font-weight="600" fill="#8dffc2">☕ Coffee</text>

  <rect x="691" y="970" width="150" height="38" rx="6" fill="#161b22" stroke="#238636" stroke-width="1"/>
  <text x="766" y="994" text-anchor="middle" font-family="'Segoe UI',Roboto,Arial,sans-serif" font-size="13" font-weight="600" fill="#7ee787">🌙 Night Owl</text>

  <!-- ═══════════════════════════════════════════════════════ -->
  <!--              🏢 OUR ORGANIZATION                        -->
  <!-- ═══════════════════════════════════════════════════════ -->
  <line x1="60" y1="1050" x2="845" y2="1050" stroke="#238636" stroke-width="1"/>
  <text x="450" y="1092" text-anchor="middle" font-family="'Segoe UI',Roboto,Arial,sans-serif" font-size="20" font-weight="700" fill="#8dffc2">🏢 Our Organization</text>

  <rect x="300" y="1120" width="300" height="46" rx="6" fill="#161b22" stroke="#238636" stroke-width="1"/>
  <text x="450" y="1149" text-anchor="middle" font-family="'Segoe UI',Roboto,Arial,sans-serif" font-size="14" font-weight="600" fill="#8dffc2">🚀 MOK Student Team</text>

  <text x="450" y="1200" text-anchor="middle" font-family="'Segoe UI',Roboto,Arial,sans-serif" font-size="12" font-style="italic" fill="#8b949e">💡 Me and my friends built a team — crafting cool projects together!</text>

  <!-- ═══ امضا ═══ -->
  <line x1="60" y1="1240" x2="845" y2="1240" stroke="#238636" stroke-width="1"/>
  <text x="60" y="1270" font-family="ui-monospace,SFMono-Regular,Menlo,Consolas,monospace" font-size="12" fill="#56d364">
    <tspan fill="#8dffc2">$</tspan> Hiva-OS v1.0 · Built with code &amp; rhythm 🎻
  </text>
  <circle cx="845" cy="1265" r="4" fill="#8dffc2">
    <animate attributeName="opacity" values="1;0.15;1" dur="1.4s" repeatCount="indefinite"/>
  </circle>
</svg>
